<?xml version="1.0" standalone="no"?>
<!DOCTYPE svg PUBLIC "-//W3C//DTD SVG 20010904//EN"
 "http://www.w3.org/TR/2001/REC-SVG-20010904/DTD/svg10.dtd">
<svg version="1.0" xmlns="http://www.w3.org/2000/svg"
 width="1280.000000pt" height="741.000000pt" viewBox="0 0 1280.000000 741.000000"
 preserveAspectRatio="xMidYMid meet">
<metadata>
Created by potrace 1.15, written by Peter Selinger 2001-2017
</metadata>
<g transform="translate(0.000000,741.000000) scale(0.100000,-0.100000)"
fill="#000000" stroke="none">
<path d="M11320 7353 c-29 -12 -67 -23 -85 -23 -44 0 -100 -43 -172 -130 -91
-112 -95 -120 -88 -165 3 -22 7 -65 8 -96 1 -36 8 -64 18 -75 9 -11 20 -43 24
-71 5 -36 12 -53 21 -53 29 0 54 -39 54 -84 0 -26 6 -48 14 -56 8 -6 16 -25
18 -42 4 -43 30 -58 58 -33 18 16 23 17 30 5 6 -8 10 -20 10 -26 0 -7 11 -15
25 -18 18 -5 25 -13 25 -31 0 -21 5 -25 29 -25 23 0 30 -5 36 -27 15 -60 40
-66 106 -28 24 14 57 25 72 25 16 0 38 5 49 11 17 9 24 7 42 -11 21 -21 21
-21 2 -36 -11 -8 -26 -14 -34 -14 -8 0 -39 -7 -69 -16 -45 -13 -57 -21 -71
-51 -16 -33 -18 -34 -58 -28 -30 4 -60 0 -103 -15 -33 -11 -74 -20 -91 -20
-27 0 -30 -3 -30 -30 0 -41 -25 -87 -50 -95 -12 -4 -34 -34 -54 -73 -19 -37
-57 -93 -85 -125 -28 -32 -54 -70 -57 -85 -3 -15 -12 -52 -19 -82 -7 -30 -16
-75 -20 -100 -6 -44 -36 -156 -57 -213 -6 -15 -24 -46 -40 -68 l-30 -41 -23
22 c-24 23 -45 20 -45 -6 0 -12 -4 -12 -21 -4 -15 9 -24 8 -36 -2 -12 -10 -17
-10 -20 -1 -24 71 -205 153 -338 153 -37 0 -63 8 -101 30 -57 32 -84 61 -111
121 -12 26 -25 39 -38 39 -26 0 -45 -18 -45 -42 0 -10 -4 -18 -9 -18 -18 0
-25 20 -55 153 -14 59 -35 92 -66 102 -9 3 -31 26 -49 50 -25 35 -39 45 -60
45 -31 0 -49 -17 -74 -72 -9 -21 -21 -38 -27 -38 -5 0 -23 19 -40 42 -23 32
-30 52 -30 89 0 26 5 51 10 54 17 10 11 26 -21 56 -25 23 -28 32 -20 47 7 14
18 18 36 15 33 -7 32 7 -4 41 -34 33 -53 27 -45 -12 4 -19 0 -32 -10 -41 -13
-11 -21 -8 -54 20 -37 31 -39 35 -26 55 10 15 21 20 39 16 49 -9 22 52 -27 64
-30 7 -39 -11 -16 -34 10 -10 8 -17 -9 -33 l-21 -22 -40 33 c-36 29 -39 35
-30 56 9 19 16 22 39 17 36 -7 38 9 4 42 -32 33 -59 33 -51 2 3 -14 -1 -33
-10 -45 l-15 -22 -45 31 c-27 18 -42 35 -38 42 19 33 26 37 46 26 38 -20 42 6
7 45 -23 27 -35 34 -43 26 -7 -7 -7 -16 1 -29 10 -15 8 -22 -11 -40 -12 -12
-26 -18 -29 -14 -4 3 -21 -6 -37 -22 -25 -24 -30 -37 -30 -74 0 -60 36 -135
89 -186 52 -49 56 -85 10 -85 -36 0 -141 -23 -254 -56 -44 -12 -107 -26 -141
-29 l-60 -7 -17 43 c-17 44 -42 159 -52 242 -4 26 -11 47 -17 47 -7 0 -8 -17
-4 -47 13 -107 18 -212 10 -230 -4 -10 -8 -36 -8 -58 l-1 -39 -85 -34 c-143
-57 -256 -109 -323 -150 -85 -52 -207 -151 -207 -168 0 -7 11 -16 25 -20 14
-3 25 -8 25 -11 0 -3 -11 -18 -25 -35 -29 -34 -32 -60 -10 -78 28 -23 158 -3
356 56 199 57 229 63 229 39 0 -17 40 -30 67 -21 37 11 45 -6 34 -70 -5 -32
-13 -97 -16 -144 -4 -47 -13 -139 -21 -205 -8 -66 -14 -122 -14 -126 0 -3 -37
-9 -83 -12 -54 -5 -118 -19 -187 -42 -57 -19 -107 -35 -112 -35 -21 0 -60 129
-47 153 7 11 3 20 -13 31 -24 17 -68 22 -68 7 0 -4 -37 7 -82 25 -46 19 -93
34 -104 34 -50 0 -84 13 -84 30 0 33 -70 42 -92 12 -10 -14 -32 -21 -92 -26
-44 -4 -92 -14 -107 -22 -41 -21 -54 -18 -83 20 -14 19 -36 38 -48 42 -13 4
-33 15 -45 24 -13 10 -53 28 -89 41 -96 34 -119 59 -128 139 -4 36 -14 90 -23
120 -16 57 -65 138 -89 147 -9 3 -13 23 -13 67 0 34 -5 99 -11 144 -7 46 -10
86 -7 89 4 3 21 -1 40 -10 18 -9 55 -21 82 -28 28 -6 60 -15 73 -20 13 -5 30
-9 39 -9 8 0 29 -11 47 -25 120 -97 181 -153 207 -189 44 -60 196 -146 259
-146 70 1 85 18 85 98 0 54 6 77 29 122 47 90 56 141 66 380 10 234 26 350 49
358 11 4 12 -1 7 -19 -13 -42 -11 -61 6 -72 14 -9 23 -6 49 21 17 17 37 32 44
32 6 0 32 -16 58 -36 35 -27 53 -35 79 -32 28 2 34 7 36 31 2 15 9 27 18 27 8
0 14 7 14 15 0 9 12 27 26 42 14 14 23 32 20 39 -3 8 -1 23 5 32 14 22 -17 72
-74 122 l-36 32 75 91 c41 51 156 193 256 317 99 124 189 226 199 228 9 2 23
10 30 19 11 13 10 18 -10 34 -32 26 -50 24 -62 -8 -19 -47 -55 -102 -128 -193
-51 -63 -298 -337 -354 -391 -30 -30 -50 -29 -102 3 -45 27 -87 24 -112 -11
-12 -15 -41 -37 -65 -48 -58 -28 -73 -47 -87 -118 -27 -131 -99 -319 -159
-413 -54 -86 -72 -132 -72 -193 0 -75 -14 -93 -60 -78 -19 7 -51 24 -70 39
-19 15 -60 40 -90 55 -93 47 -107 60 -121 117 -10 45 -23 63 -83 123 -39 39
-107 94 -151 124 l-80 53 -124 -7 c-87 -5 -136 -12 -168 -26 -50 -21 -63 -23
-63 -10 0 20 33 41 66 41 19 0 34 4 34 10 0 5 19 20 43 32 l42 22 -42 8 c-23
5 -47 16 -54 24 -11 14 -8 15 23 9 22 -4 38 -3 42 4 5 7 -2 11 -18 11 -28 0
-43 15 -24 24 7 3 -9 3 -37 -1 -67 -9 -115 -7 -129 7 -8 9 -2 11 24 6 l35 -7
-22 20 c-35 29 -28 40 15 25 20 -7 55 -13 77 -12 22 0 31 2 20 5 -38 9 -102
42 -108 56 -4 12 4 13 41 10 l47 -4 -31 16 c-18 9 -45 33 -62 54 -17 21 -45
44 -64 51 -42 17 -68 39 -68 58 0 18 41 11 104 -18 25 -11 55 -20 66 -20 34 0
18 23 -27 40 -21 8 -59 32 -83 52 -58 50 -187 99 -260 99 -125 0 -204 -8 -208
-21 -2 -6 -21 -20 -41 -29 -79 -37 -153 -85 -198 -130 -29 -28 -71 -57 -106
-71 -49 -20 -56 -27 -51 -44 4 -12 14 -26 23 -33 14 -10 14 -13 -2 -30 -25
-28 -21 -49 13 -75 41 -30 38 -38 -14 -38 -43 0 -69 -21 -45 -36 7 -4 8 -21 5
-43 -23 -130 -18 -136 108 -144 94 -7 117 -17 130 -64 6 -18 -2 -29 -46 -61
-29 -22 -91 -56 -138 -76 -60 -26 -96 -49 -122 -78 -39 -42 -42 -51 -38 -151
1 -38 -4 -57 -24 -86 -15 -21 -28 -46 -30 -57 -7 -37 -117 -244 -148 -280 -17
-19 -54 -47 -81 -61 -92 -46 -158 -20 -272 108 -50 57 -71 72 -130 96 -135 53
-176 85 -232 177 -40 65 -43 94 -24 225 9 67 8 80 -9 119 -11 25 -20 48 -20
53 0 4 24 10 53 13 28 3 185 20 347 37 163 17 318 29 347 26 40 -4 53 -2 57
10 24 60 -26 89 -77 44 -20 -17 -31 -18 -422 -51 -347 -29 -314 -34 -352 50
-17 39 -35 70 -41 70 -18 0 -37 -50 -25 -68 6 -10 14 -32 18 -50 5 -25 3 -32
-8 -32 -8 0 -17 12 -20 28 -6 30 -64 95 -78 86 -14 -8 -11 -40 8 -73 12 -20
15 -33 8 -40 -6 -6 -87 -16 -180 -23 -159 -12 -170 -14 -170 -33 0 -18 7 -20
75 -20 41 0 124 4 183 8 l109 8 -7 -23 c-10 -32 -13 -34 -35 -20 -28 17 -60
15 -83 -5 -10 -10 -37 -23 -60 -28 -28 -7 -43 -17 -45 -29 -4 -17 2 -18 69
-14 71 5 73 5 49 -11 -45 -30 -90 -73 -90 -87 0 -23 43 -16 94 16 26 17 52 28
58 24 10 -7 7 -55 -10 -115 -15 -56 4 -87 68 -118 43 -21 57 -34 65 -58 12
-36 13 -38 124 -148 110 -110 108 -121 -22 -130 -201 -15 -281 -45 -334 -124
-32 -47 -29 -88 8 -145 83 -125 327 -247 643 -322 l79 -19 -7 -485 c-4 -267
-6 -677 -6 -911 0 -393 -1 -427 -17 -441 -10 -9 -27 -18 -38 -22 -14 -4 -32
-37 -62 -114 -280 -714 -328 -828 -360 -861 -18 -19 -33 -39 -33 -44 0 -33 86
-48 149 -26 27 10 31 15 25 33 -14 42 -6 83 35 179 22 54 59 151 82 215 42
117 160 417 180 453 12 24 25 24 25 2 1 -10 4 -40 8 -68 3 -27 9 -144 12 -260
6 -198 5 -213 -15 -265 -27 -71 -26 -84 4 -98 37 -17 60 -15 106 9 34 17 40
24 37 47 -2 20 -11 29 -34 35 l-31 9 -5 312 c-3 171 -5 312 -4 313 2 2 366
-783 380 -819 8 -22 7 -31 -9 -47 -17 -20 -17 -22 0 -41 22 -24 98 -27 149 -6
50 21 52 33 11 69 -38 33 -84 117 -170 307 -52 116 -168 364 -251 537 -46 95
-61 117 -94 138 l-40 25 0 912 0 911 123 -7 c67 -4 146 -9 175 -13 l54 -6 -7
-46 c-8 -50 -26 -113 -108 -366 -50 -154 -54 -172 -42 -196 24 -45 144 -149
203 -175 127 -57 294 -109 385 -119 50 -6 57 -10 57 -29 -1 -57 -41 -277 -58
-321 -83 -205 -109 -621 -53 -853 23 -97 41 -153 57 -179 212 -343 450 -507
809 -558 124 -18 398 -18 525 -1 173 23 339 114 490 266 202 203 310 487 310
813 0 178 -27 325 -80 434 l-38 77 19 55 c37 108 163 331 187 331 8 0 56 18
107 41 83 36 102 50 175 125 45 46 86 82 92 78 21 -13 68 -130 68 -168 0 -22
-8 -58 -19 -80 -30 -67 -57 -141 -117 -325 -55 -167 -59 -176 -118 -244 -72
-84 -152 -166 -218 -222 -42 -36 -46 -43 -41 -72 l5 -33 112 105 c61 58 115
105 120 105 31 0 -91 -310 -258 -654 -53 -108 -96 -199 -96 -202 0 -2 40 -4
89 -4 l90 0 -6 69 c-8 99 25 225 112 421 23 52 52 124 65 158 13 35 30 66 38
70 14 5 101 -13 111 -23 2 -3 -1 -35 -8 -72 -7 -38 -16 -97 -21 -133 -5 -36
-12 -73 -15 -81 -5 -12 1 -18 22 -22 49 -9 63 7 63 71 1 49 9 100 37 210 6 24
34 30 51 9 11 -13 4 -145 -17 -335 -6 -52 -9 -97 -6 -101 2 -4 18 -6 35 -3 29
4 30 6 32 61 1 63 2 75 12 184 13 129 20 107 57 -167 10 -73 9 -412 -2 -445
-3 -12 8 -15 55 -15 l58 -1 -6 55 c-7 67 -11 96 -25 180 -6 36 -14 200 -18
365 -6 274 -5 301 11 314 9 8 18 12 20 10 63 -81 76 -105 76 -140 0 -44 19
-52 52 -23 17 16 19 15 37 -27 26 -58 71 -229 71 -268 0 -36 4 -37 58 -13 l40
18 -19 36 c-40 79 -99 290 -134 485 -47 260 -104 516 -136 601 -10 29 -19 76
-19 105 0 54 -24 97 -53 97 -10 0 -10 30 0 148 l13 147 37 30 c66 53 163 148
163 159 0 6 -37 81 -81 166 -45 85 -81 166 -81 180 1 14 8 84 17 155 10 72 22
208 28 303 l12 173 32 15 c17 9 50 38 73 65 23 27 47 49 54 49 23 0 139 41
215 76 l74 34 49 -30 c26 -17 55 -30 62 -30 8 0 27 -5 42 -10 19 -8 24 -14 17
-21 -7 -7 -7 -19 0 -40 11 -28 36 -38 132 -52 17 -2 19 -9 17 -40 -4 -39 14
-57 40 -41 7 5 35 16 61 25 48 16 49 16 57 -5 4 -12 27 -42 50 -67 41 -43 90
-104 160 -199 19 -26 82 -107 140 -179 273 -342 353 -462 364 -543 5 -36 1
-54 -26 -108 -18 -36 -37 -65 -43 -64 -5 1 -16 15 -24 33 -15 31 -15 31 -93
31 -75 0 -79 -1 -88 -26 -17 -43 -11 -108 16 -190 23 -70 24 -83 13 -117 -7
-20 -18 -42 -26 -48 -7 -6 -13 -16 -13 -22 0 -5 -17 -29 -37 -53 -48 -54 -114
-146 -159 -221 -19 -32 -71 -98 -116 -147 -90 -97 -172 -230 -188 -302 -6 -26
-17 -56 -25 -68 -35 -49 -4 -174 54 -215 36 -26 63 -74 80 -145 20 -83 83
-198 142 -262 10 -11 32 -47 48 -80 28 -58 72 -120 201 -284 131 -166 216
-291 238 -350 31 -79 52 -157 52 -190 0 -19 7 -57 15 -84 9 -29 15 -89 15
-149 0 -88 2 -99 19 -104 15 -4 1 -21 -71 -91 -50 -48 -104 -92 -121 -99 -18
-6 -69 -12 -113 -12 -68 -1 -83 -4 -88 -19 -3 -9 -8 -21 -11 -27 -3 -7 79 -10
236 -9 l242 1 14 27 c13 25 48 46 77 46 16 0 66 -45 66 -59 0 -17 41 -22 100
-14 48 7 55 11 58 33 2 14 14 36 27 50 20 21 23 33 20 73 -3 40 -1 47 15 47
22 0 33 35 15 50 -10 9 -19 50 -27 122 0 4 -11 45 -25 90 -13 46 -29 103 -34
128 -6 25 -14 54 -19 65 -12 27 -56 136 -86 214 -28 71 -96 201 -131 247 -13
17 -23 35 -23 41 0 5 -9 18 -21 29 -12 10 -36 48 -55 84 -34 66 -92 159 -152
245 -34 49 -68 89 -210 252 -125 144 -135 160 -140 253 l-5 79 59 68 c93 109
136 153 189 193 28 21 74 57 103 79 29 23 56 41 60 41 4 0 23 13 42 30 19 16
40 29 46 30 7 0 14 -28 18 -67 9 -88 49 -211 87 -263 22 -31 49 -50 97 -72 62
-28 73 -30 152 -25 86 5 153 26 210 67 16 11 33 20 38 20 6 0 15 -26 21 -57 6
-32 16 -83 23 -113 6 -30 12 -70 13 -88 4 -52 24 -158 55 -287 16 -66 36 -174
45 -240 16 -116 19 -125 92 -269 41 -82 83 -161 92 -175 10 -14 37 -55 62 -91
24 -36 84 -119 135 -185 50 -66 103 -140 119 -165 15 -25 47 -72 72 -105 109
-148 257 -391 302 -495 18 -41 37 -83 42 -93 5 -10 14 -48 18 -85 5 -37 14
-80 21 -97 13 -33 16 -160 5 -217 -7 -35 -5 -38 32 -57 l38 -20 -51 -1 c-49 0
-53 -2 -100 -53 -27 -30 -61 -72 -76 -94 -31 -46 -102 -84 -188 -102 -47 -10
-57 -16 -69 -42 -20 -45 -4 -57 54 -41 25 7 79 12 119 12 41 0 87 5 102 10 32
12 134 15 187 5 l37 -7 0 39 c0 53 18 76 52 68 28 -7 45 -23 63 -59 9 -17 22
-22 74 -26 80 -6 86 1 83 94 -2 39 -4 96 -5 126 l-2 55 48 3 47 3 -5 42 c-13
94 -18 113 -40 157 -13 25 -28 66 -34 90 -7 25 -20 65 -30 90 -10 25 -27 72
-36 105 -10 33 -33 93 -52 133 -18 40 -33 75 -33 78 0 3 -26 58 -58 122 -32
65 -68 144 -80 178 -21 60 -50 120 -122 244 -20 36 -58 103 -85 150 -48 86
-156 237 -243 342 -27 31 -59 79 -72 105 -13 26 -33 62 -46 78 -12 17 -25 41
-29 55 -4 14 -18 46 -31 72 -13 26 -24 64 -24 85 -1 21 -7 56 -15 78 -12 33
-14 141 -13 610 0 380 -3 610 -11 690 -7 66 -13 237 -14 380 l-2 260 31 3 c31
3 31 2 44 -60 14 -67 44 -128 64 -128 7 0 30 13 52 29 75 54 214 67 320 30 34
-11 98 -23 149 -26 90 -5 90 -5 210 43 95 38 132 48 180 49 l60 0 18 50 19 50
-36 72 c-20 39 -36 76 -36 82 0 7 -10 30 -21 53 -20 38 -21 52 -15 172 3 72 6
136 6 141 0 6 -4 107 -9 226 -8 210 -20 297 -46 349 -37 74 -67 228 -66 343 1
51 -2 59 -22 68 -13 6 -28 23 -33 37 -8 24 -14 26 -54 24 -42 -3 -48 0 -82 37
-20 23 -46 41 -57 41 -41 0 -69 22 -92 74 -21 44 -28 51 -56 54 -27 3 -33 7
-33 28 0 34 -1 38 -10 49 -4 6 -11 25 -15 43 -3 17 -10 32 -13 32 -4 0 -40 -9
-80 -20 -39 -11 -80 -20 -89 -20 -11 0 -31 22 -50 54 -36 59 -41 86 -17 86 8
0 13 4 9 9 -3 5 -1 12 5 16 5 3 15 -5 22 -19 17 -39 31 -31 26 14 -5 55 8 50
29 -10 10 -27 21 -50 25 -50 11 0 10 24 -1 36 -5 5 -12 20 -16 34 -6 23 -5 23
15 -5 20 -28 21 -29 15 -5 -4 14 -24 42 -46 63 -21 21 -39 40 -39 42 0 2 25
-10 55 -27 60 -32 70 -15 11 21 -17 11 -36 33 -43 50 -11 30 -11 31 10 16 36
-25 38 -17 7 27 -31 42 -38 72 -20 83 9 5 15 -23 11 -47 0 -5 3 -8 9 -8 14 0
13 53 -1 67 -7 7 -9 23 -5 38 9 34 17 26 25 -22 3 -20 12 -38 20 -41 10 -3 11
0 2 16 -6 11 -11 37 -11 57 0 26 -9 48 -30 75 -21 26 -26 40 -18 42 7 3 -7 14
-32 25 -47 21 -88 58 -77 69 4 4 15 -4 26 -17 11 -13 20 -18 21 -12 0 7 -16
31 -36 53 -20 22 -33 40 -30 40 22 0 50 -27 67 -63 13 -31 19 -36 19 -20 0 21
-49 88 -79 107 -7 4 -37 30 -67 57 -30 27 -69 52 -91 58 -21 5 -95 9 -164 9
-109 -1 -133 -4 -179 -25z m-4570 -843 c0 -5 -5 -10 -11 -10 -5 0 -7 5 -4 10
3 6 8 10 11 10 2 0 4 -4 4 -10z m75 -51 c18 -7 17 -8 -6 -8 -42 -1 -89 11 -83
21 6 9 51 3 89 -13z m-60 -29 c-3 -5 -25 -10 -48 -9 -33 0 -38 2 -22 9 28 12
78 12 70 0z m-220 -100 l30 -20 -45 -1 c-52 -1 -67 -3 -114 -19 -26 -8 -41 -8
-56 0 -34 18 -25 40 18 41 20 1 51 5 67 9 50 13 69 11 100 -10z m-1965 -183
c0 -7 -7 -22 -15 -33 -14 -18 -14 -18 -15 7 0 14 3 29 7 32 11 11 23 8 23 -6z
m5150 -311 c0 -2 -7 -9 -15 -16 -12 -10 -15 -10 -15 4 0 9 7 16 15 16 8 0 15
-2 15 -4z m-280 -76 c0 -5 -5 -10 -11 -10 -5 0 -7 5 -4 10 3 6 8 10 11 10 2 0
4 -4 4 -10z m-3519 -227 c37 -41 113 -139 143 -188 53 -82 180 -175 261 -190
21 -4 52 -13 68 -22 29 -14 29 -15 9 -33 -18 -17 -25 -18 -166 -2 -80 8 -146
19 -146 24 0 4 6 8 13 8 15 1 -31 40 -47 40 -7 0 -21 -6 -31 -14 -16 -11 -17
-17 -7 -28 12 -15 7 -16 -188 -31 -17 -1 -24 2 -22 13 4 18 -25 40 -43 33 -8
-2 -33 9 -57 25 -24 16 -67 41 -95 56 -29 14 -53 29 -53 33 0 21 54 78 137
143 53 41 114 96 136 123 22 26 43 47 47 47 3 0 22 -17 41 -37z m6326 -278 c9
-27 32 -79 53 -115 37 -65 61 -125 66 -167 1 -13 5 -40 9 -62 6 -38 6 -38 -21
-33 -25 5 -26 3 -22 -32 l4 -38 -33 7 c-25 4 -35 2 -39 -10 -3 -8 -17 -15 -30
-15 -17 0 -27 -8 -34 -25 -8 -20 -16 -25 -45 -25 -20 0 -45 5 -56 11 -13 6
-84 10 -184 10 -192 -2 -215 2 -215 34 0 15 8 26 20 30 11 3 45 32 76 64 34
35 72 64 94 71 51 17 178 125 218 185 18 28 51 90 75 139 39 82 42 86 45 55 2
-19 10 -56 19 -84z m-1987 -99 c72 -38 128 -72 156 -93 17 -12 36 -23 42 -23
6 0 26 -9 44 -19 18 -11 50 -23 71 -26 36 -7 37 -8 37 -50 0 -26 -10 -63 -24
-92 -14 -26 -28 -60 -31 -75 -4 -16 -11 -28 -16 -28 -19 0 -134 128 -219 245
-14 18 -46 63 -72 98 -27 36 -48 67 -48 71 0 11 34 6 60 -8z m-3180 -492 c30
-19 72 -39 92 -45 21 -5 43 -19 49 -31 11 -21 11 -21 -92 -14 -93 6 -260 -4
-336 -19 -26 -5 -26 -5 -8 7 10 7 44 36 75 64 30 28 64 56 75 62 38 21 87 13
145 -24z m1550 -468 c0 -12 -3 -51 -7 -86 l-6 -63 -34 67 c-19 38 -33 69 -31
71 8 7 64 34 71 35 4 0 7 -11 7 -24z m101 -521 c7 -33 14 -64 15 -70 12 -48
44 -253 46 -296 3 -52 2 -54 -24 -57 -18 -2 -30 3 -37 17 -12 22 -31 301 -30
436 1 95 5 92 30 -30z m-228 -94 l-17 -132 -33 -21 c-19 -11 -37 -18 -40 -14
-3 3 11 52 30 108 53 150 71 197 74 194 2 -2 -4 -62 -14 -135z m81 -233 c-2
-13 -9 -61 -14 -108 -15 -118 -18 -130 -37 -130 -13 0 -15 8 -9 48 4 26 10 79
13 117 3 46 11 74 21 83 23 18 31 15 26 -10z m-128 -30 c-3 -13 -10 -57 -17
-98 -7 -41 -15 -78 -18 -82 -11 -13 -81 4 -81 18 0 8 8 42 17 75 14 49 24 65
52 85 44 30 53 30 47 2z m392 -187 c16 -53 15 -58 -8 -28 -20 25 -27 67 -12
67 5 0 14 -17 20 -39z"/>
<path d="M2494 7330 c-33 -15 -93 -33 -132 -40 -79 -13 -114 -36 -41 -26 l44
5 -55 -18 c-96 -32 -126 -49 -168 -92 -50 -52 -47 -64 4 -20 20 18 41 30 47
28 16 -5 21 -27 6 -27 -14 0 -99 -79 -99 -92 0 -5 11 -1 25 8 29 19 39 15 29
-10 -5 -14 -87 -76 -100 -76 -2 0 -12 -8 -22 -17 -11 -10 -29 -26 -41 -36 -13
-10 -20 -21 -17 -24 3 -4 15 2 26 12 22 20 39 14 23 -7 -14 -18 -43 -107 -43
-131 0 -22 10 -18 14 5 1 7 7 23 14 35 7 12 12 30 12 40 0 11 7 28 15 39 14
18 14 18 15 -6 0 -14 -7 -38 -15 -54 -13 -25 -13 -27 0 -22 13 4 12 1 -2 -20
-11 -17 -13 -28 -6 -32 18 -11 18 -65 1 -97 -8 -16 -18 -52 -20 -78 -5 -44 -4
-47 11 -34 9 8 30 19 47 25 29 9 31 8 27 -9 -3 -11 -23 -30 -44 -42 -21 -12
-41 -28 -44 -36 -4 -10 1 -10 19 3 14 9 31 16 38 16 7 0 30 9 51 20 42 23 53
7 17 -25 -11 -10 -20 -23 -20 -28 0 -6 11 0 25 13 30 28 43 20 26 -17 -10 -23
-10 -26 0 -15 14 13 63 17 57 5 -2 -5 -12 -26 -22 -48 -56 -126 -66 -146 -80
-151 -9 -3 -32 3 -51 15 -20 12 -43 21 -51 21 -9 0 -46 -18 -83 -40 -59 -35
-77 -41 -132 -42 -67 -1 -94 8 -158 56 -38 28 -81 35 -81 12 0 -9 -7 -12 -20
-9 -16 4 -23 -1 -31 -25 -8 -23 -18 -31 -46 -37 -80 -15 -230 -108 -354 -220
-63 -56 -201 -140 -279 -170 -41 -15 -85 -33 -96 -41 -22 -13 -70 -30 -234
-81 -47 -14 -102 -32 -123 -40 -20 -7 -55 -13 -77 -13 -47 0 -129 -31 -174
-65 -18 -14 -37 -25 -42 -25 -5 0 -27 -14 -48 -32 -33 -27 -37 -35 -32 -61 3
-16 16 -46 29 -65 12 -19 36 -74 52 -120 29 -82 32 -86 70 -99 56 -19 72 -39
94 -113 10 -36 32 -92 48 -125 l31 -60 -34 -115 c-44 -147 -79 -324 -95 -471
-26 -250 39 -495 167 -629 56 -59 100 -86 194 -119 174 -60 430 -60 620 1 36
11 84 27 108 34 49 16 87 40 192 118 l75 56 3 -42 c2 -41 24 -219 42 -343 5
-33 19 -112 30 -175 12 -63 23 -124 24 -135 6 -44 28 -162 38 -200 20 -78 39
-171 53 -275 9 -58 22 -148 30 -200 8 -52 14 -135 15 -184 0 -150 -42 -206
-231 -305 -57 -30 -134 -80 -170 -110 -108 -91 -192 -158 -231 -188 -20 -15
-79 -62 -130 -104 -51 -42 -110 -88 -131 -102 -22 -15 -55 -40 -75 -57 -173
-146 -263 -210 -292 -210 -9 0 -21 -5 -26 -10 -6 -6 -24 -13 -40 -16 -16 -3
-30 -6 -31 -7 -2 -2 3 -23 27 -116 13 -52 8 -55 -56 -36 -13 4 -25 1 -30 -7
-8 -12 -54 -119 -54 -125 0 -2 17 -11 37 -20 42 -20 51 -44 32 -80 -12 -23
-18 -24 -59 -19 l-45 6 -29 -51 c-44 -79 -95 -243 -111 -359 -33 -227 -32
-230 19 -230 33 0 33 0 39 58 12 123 88 221 224 291 52 26 106 87 144 163 17
35 33 65 35 67 2 2 13 -8 25 -22 11 -15 26 -27 33 -27 7 0 58 51 112 113 111
126 178 193 245 246 26 20 80 64 120 98 211 177 575 432 754 530 69 37 114 71
193 148 102 101 102 101 113 165 7 42 10 222 8 500 -3 434 11 857 32 975 25
139 76 315 91 315 18 0 76 -66 101 -115 28 -56 148 -208 236 -300 69 -71 146
-170 205 -263 61 -95 186 -339 234 -457 22 -55 54 -133 71 -174 26 -62 31 -86
31 -157 0 -80 -17 -228 -41 -364 -7 -36 -13 -76 -15 -88 -2 -23 -11 -66 -39
-187 -81 -358 -105 -530 -106 -754 0 -172 18 -309 51 -396 6 -15 10 -55 10
-91 0 -71 -4 -68 80 -65 53 2 60 -7 45 -54 -7 -22 -16 -66 -19 -97 l-6 -58 90
0 c89 0 90 0 105 30 9 16 19 30 24 30 12 0 38 -32 45 -57 5 -15 16 -23 29 -24
12 0 101 -5 197 -10 432 -24 400 -24 400 0 0 25 -42 45 -119 55 -80 11 -142
35 -183 72 -36 32 -146 93 -198 109 -13 4 -39 17 -57 29 l-32 21 25 20 24 20
-21 55 c-55 144 -61 176 -55 335 3 94 13 188 26 250 11 55 23 123 25 151 3 28
10 66 15 85 6 19 10 52 10 75 0 23 6 79 14 125 13 81 26 178 62 486 21 177 15
292 -21 448 -31 135 -134 459 -166 520 -11 22 -31 67 -44 100 -12 33 -94 204
-182 380 -88 176 -174 354 -192 395 -19 41 -71 156 -116 255 -72 156 -105 246
-105 284 0 6 23 11 53 12 28 0 78 4 110 8 47 6 64 4 88 -11 17 -10 29 -26 29
-38 0 -11 11 -42 24 -68 13 -26 27 -57 30 -70 11 -33 84 -152 116 -187 15 -16
37 -45 49 -62 29 -43 62 -43 93 -3 13 17 41 52 63 78 22 26 56 73 75 105 l34
57 61 -6 c43 -4 72 -1 105 11 78 29 149 45 199 45 44 0 48 2 64 35 10 21 17
60 17 94 0 58 0 59 33 65 17 3 88 8 157 12 147 7 163 1 194 -86 20 -56 18 -55
94 -32 l32 11 0 -39 c0 -32 -4 -39 -26 -44 -14 -4 -24 -12 -21 -19 4 -13 87
-22 124 -12 32 8 29 25 -6 25 -25 0 -29 4 -35 38 -3 20 -6 42 -6 48 0 11 116
54 145 54 10 0 15 -11 15 -35 0 -28 -4 -35 -19 -35 -19 0 -38 -17 -29 -25 8
-8 138 8 138 16 0 5 -11 9 -24 9 -25 0 -36 17 -36 53 0 27 36 46 103 54 l47 6
0 -34 c0 -29 -5 -36 -30 -46 -16 -6 -30 -16 -30 -23 0 -11 27 -10 128 6 45 7
40 24 -8 24 -38 0 -40 2 -40 30 0 35 39 60 93 60 l35 0 7 76 c4 46 3 80 -3 86
-5 5 -37 12 -71 15 -33 3 -65 11 -71 17 -16 20 3 71 28 74 43 6 21 20 -40 24
-63 5 -111 -5 -78 -16 8 -3 24 -6 34 -8 24 -4 41 -30 33 -52 -14 -36 -160 -8
-169 33 -7 29 3 51 23 51 10 0 19 5 19 11 0 5 -4 8 -9 5 -4 -3 -22 -1 -39 3
-31 9 -72 5 -72 -8 0 -3 10 -11 23 -16 14 -6 23 -21 25 -39 3 -27 2 -28 -25
-22 -15 4 -48 17 -73 29 -35 17 -45 27 -45 47 0 20 6 26 30 30 16 3 31 12 33
21 2 13 -10 17 -65 22 -37 3 -71 3 -75 1 -13 -8 4 -34 22 -34 24 0 42 -24 34
-45 -7 -17 -47 -18 -86 -1 -13 6 -19 2 -23 -17 -16 -61 5 -59 -562 -60 -285
-1 -529 1 -543 5 -20 6 -29 21 -47 75 -12 37 -34 102 -48 143 -24 70 -26 94
-34 340 -5 151 -14 277 -20 294 -6 16 -18 80 -27 144 -11 89 -12 132 -4 189 5
41 10 76 10 79 0 2 -9 4 -20 4 -17 0 -20 7 -20 43 0 54 -22 68 -100 65 l-55
-3 2 37 c2 32 -3 41 -30 62 -18 13 -54 36 -82 49 -44 23 -50 24 -60 10 -7 -9
-17 -13 -22 -10 -6 4 -46 14 -89 22 -43 8 -81 18 -86 23 -4 4 3 21 16 37 22
28 25 29 50 15 58 -31 116 -10 116 41 0 23 5 29 21 29 16 0 20 5 16 19 -4 16
0 19 22 18 21 -2 27 3 29 26 4 31 31 37 52 11 8 -8 25 -14 39 -12 23 3 28 11
46 78 26 96 39 119 74 126 21 5 31 14 38 38 5 17 15 30 21 29 7 -2 12 4 12 12
0 9 20 28 45 44 30 19 41 31 34 38 -7 7 -7 17 3 32 11 18 10 26 -4 52 -14 23
-18 53 -18 122 0 80 -3 99 -27 146 -32 62 -87 107 -142 117 -20 4 -48 18 -63
31 -30 29 -54 43 -117 73 -24 11 -57 32 -73 45 -26 22 -39 25 -101 24 -57 0
-85 -6 -133 -29z m649 -536 c13 -17 16 -31 11 -47 -5 -12 -7 -26 -5 -32 1 -5
-6 -2 -17 8 -12 11 -19 32 -20 57 -2 46 6 50 31 14z m-41 -116 c-27 -27 -32
-22 -20 21 9 32 10 33 26 17 15 -15 15 -18 -6 -38z m-1616 -1140 c-3 -35 -10
-94 -16 -133 -14 -106 -12 -301 5 -365 8 -30 12 -56 10 -58 -2 -3 -33 10 -67
28 -150 77 -282 110 -468 117 -126 4 -174 -4 -350 -63 -16 -5 -46 35 -110 149
-26 47 -29 56 -13 51 13 -5 11 0 -10 23 -35 37 -34 44 3 30 38 -15 51 0 21 24
-13 10 -19 19 -14 19 5 0 14 -5 21 -12 17 -17 28 0 15 22 -10 15 -8 21 15 37
23 15 44 18 149 15 125 -3 306 12 358 30 17 5 80 35 141 65 113 56 193 80 272
82 l44 1 -6 -62z m1360 -579 c21 -41 44 -113 54 -169 5 -25 17 -76 29 -115 11
-38 18 -71 17 -73 -2 -1 -60 -5 -130 -8 l-127 -5 7 28 c3 15 12 46 19 68 8 22
23 72 34 110 18 60 72 194 78 195 1 0 10 -14 19 -31z m938 -644 c-6 -14 -64
-55 -78 -55 -13 0 -5 31 14 50 24 24 72 28 64 5z m106 -9 c0 -37 -10 -56 -31
-56 -20 0 -26 24 -9 35 6 3 10 15 10 26 0 10 7 19 15 19 9 0 15 -9 15 -24z
m-251 -16 c-6 -16 -15 -30 -20 -30 -12 0 -11 4 3 35 16 35 29 31 17 -5z"/>
<path d="M11990 7056 c0 -2 7 -7 16 -10 8 -3 12 -2 9 4 -6 10 -25 14 -25 6z"/>
<path d="M1959 6723 c-13 -16 -12 -17 4 -4 9 7 17 15 17 17 0 8 -8 3 -21 -13z"/>
<path d="M2006 6715 c4 -8 1 -15 -5 -15 -6 0 -11 -4 -11 -10 0 -5 7 -7 15 -4
16 7 21 44 5 44 -5 0 -7 -7 -4 -15z"/>
</g>
</svg>
